<mxfile host="app.diagrams.net" modified="2023-04-01T12:18:02.255Z" agent="5.0 (Macintosh; Intel Mac OS X 10_15_7) AppleWebKit/537.36 (KHTML, like Gecko) Chrome/111.0.0.0 Safari/537.36" etag="XwTtbpraaap5oVoi0WZm" version="21.0.8" type="github">
  <diagram name="Page-1" id="kxcOQDuEne45LO7yProq">
    <mxGraphModel dx="2074" dy="1188" grid="1" gridSize="10" guides="1" tooltips="1" connect="1" arrows="1" fold="1" page="1" pageScale="1" pageWidth="827" pageHeight="1169" math="0" shadow="0">
      <root>
        <mxCell id="0" />
        <mxCell id="1" parent="0" />
        <mxCell id="Jurovupwxo92sWbbuWnG-1" value="API modelling" style="swimlane;whiteSpace=wrap;html=1;" vertex="1" parent="1">
          <mxGeometry x="180" y="280" width="500" height="460" as="geometry" />
        </mxCell>
        <mxCell id="Jurovupwxo92sWbbuWnG-3" value="Prepare OpenAPI definition" style="rounded=1;whiteSpace=wrap;html=1;verticalAlign=top;" vertex="1" parent="Jurovupwxo92sWbbuWnG-1">
          <mxGeometry x="50" y="70" width="120" height="60" as="geometry" />
        </mxCell>
        <mxCell id="Jurovupwxo92sWbbuWnG-4" value="" style="edgeStyle=orthogonalEdgeStyle;rounded=0;orthogonalLoop=1;jettySize=auto;html=1;" edge="1" parent="1" source="Jurovupwxo92sWbbuWnG-2" target="Jurovupwxo92sWbbuWnG-3">
          <mxGeometry relative="1" as="geometry" />
        </mxCell>
        <mxCell id="Jurovupwxo92sWbbuWnG-2" value="Actor" style="shape=umlActor;verticalLabelPosition=bottom;verticalAlign=top;html=1;outlineConnect=0;" vertex="1" parent="1">
          <mxGeometry x="70" y="480" width="30" height="60" as="geometry" />
        </mxCell>
      </root>
    </mxGraphModel>
  </diagram>
</mxfile>
